HIERARCHY
ROOT Hips
{
	OFFSET -3.958830 18.904000 13.208200
	CHANNELS 6 Xposition Yposition Zposition Zrotation Yrotation Xrotation 
	JOINT LHipJoint
	{
		OFFSET 0.000000 0.000000 0.000000
		CHANNELS 3 Zrotation Yrotation Xrotation
		JOINT LeftUpLeg
		{
			OFFSET 1.800000 -1.400000 0.085000
			CHANNELS 3 Zrotation Yrotation Xrotation
			JOINT LeftLeg
			{
				OFFSET 2.215000 -6.000000 0.000000
				CHANNELS 3 Zrotation Yrotation Xrotation
				JOINT LeftFoot
				{
					OFFSET 2.500000 -6.900000 0.000000
					CHANNELS 3 Zrotation Yrotation Xrotation
					JOINT LeftToeBase
					{
						OFFSET 0.200000 -0.500000 1.950000
						CHANNELS 3 Zrotation Yrotation Xrotation
						End Site
						{
							OFFSET 0.000000 0.000000 0.000000
						}
					}
				}
			}
		}
	}
	JOINT RHipJoint
	{
		OFFSET 0.000000 0.000000 0.000000
		CHANNELS 3 Zrotation Yrotation Xrotation
		JOINT RightUpLeg
		{
			OFFSET -1.800000 -1.400000 0.085000
			CHANNELS 3 Zrotation Yrotation Xrotation
			JOINT RightLeg
			{
				OFFSET -2.215000 -6.000000 0.000000
				CHANNELS 3 Zrotation Yrotation Xrotation
				JOINT RightFoot
				{
					OFFSET -2.500000 -6.900000 0.000000
					CHANNELS 3 Zrotation Yrotation Xrotation
					JOINT RightToeBase
					{
						OFFSET -0.200000 -0.500000 1.950000
						CHANNELS 3 Zrotation Yrotation Xrotation
						End Site
						{
							OFFSET 0.000000 0.000000 0.000000
						}
					}
				}
			}
		}
	}
	JOINT LowerBack
	{
		OFFSET 0.000000 0.000000 0.000000
		CHANNELS 3 Zrotation Yrotation Xrotation
		JOINT Spine
		{
			OFFSET -0.087000 1.940000 -0.288900
			CHANNELS 3 Zrotation Yrotation Xrotation
			JOINT Spine1
			{
				OFFSET 0.000000 1.950000 0.060000
				CHANNELS 3 Zrotation Yrotation Xrotation
				JOINT Neck
				{
					OFFSET 0.000000 0.000000 0.000000
					CHANNELS 3 Zrotation Yrotation Xrotation
					JOINT Neck1
					{
						OFFSET 0.000000 1.600000 0.340000
						CHANNELS 3 Zrotation Yrotation Xrotation
						JOINT Head
						{
							OFFSET 0.000000 1.667000 -0.240000
							CHANNELS 3 Zrotation Yrotation Xrotation
							End Site
							{
								OFFSET 0.000000 0.000000 0.000000
							}
						}
					}
				}
				JOINT LeftShoulder
				{
					OFFSET 0.000000 0.000000 0.000000
					CHANNELS 3 Zrotation Yrotation Xrotation
					JOINT LeftArm
					{
						OFFSET 2.700000 1.550000 -0.730000
						CHANNELS 3 Zrotation Yrotation Xrotation
						JOINT LeftForeArm
						{
							OFFSET 5.450000 0.000000 0.000000
							CHANNELS 3 Zrotation Yrotation Xrotation
							JOINT LeftHand
							{
								OFFSET 3.450000 0.000000 0.000000
								CHANNELS 3 Zrotation Yrotation Xrotation
								JOINT LeftHandIndex1
								{
									OFFSET 0.750000 0.000000 0.000000
									CHANNELS 3 Zrotation Yrotation Xrotation
									End Site
									{
										OFFSET 0.000000 0.000000 0.000000
									}
								}
							}
						}
					}
				}
				JOINT RightShoulder
				{
					OFFSET 0.000000 0.000000 0.000000
					CHANNELS 3 Zrotation Yrotation Xrotation
					JOINT RightArm
					{
						OFFSET -2.700000 1.550000 -0.730000
						CHANNELS 3 Zrotation Yrotation Xrotation
						JOINT RightForeArm
						{
							OFFSET -5.450000 0.000000 0.000000
							CHANNELS 3 Zrotation Yrotation Xrotation
							JOINT RightHand
							{
								OFFSET -3.450000 0.000000 0.000000
								CHANNELS 3 Zrotation Yrotation Xrotation
								JOINT RightHandIndex1
								{
									OFFSET -0.750000 0.000000 0.000000
									CHANNELS 3 Zrotation Yrotation Xrotation
									End Site
									{
										OFFSET 0.000000 0.000000 0.000000
									}
								}
							}
						}
					}
				}
			}
		}
	}
}
MOTION
Frames: 14
Frame Time: 0.016667
3.147380 17.542520 -1.693670 -0.460850 22.104667 -0.151755 -15.005183 12.904355 2.851586 -5.897012 0.424761 -0.346950 -4.229365 5.991025 17.440268 -0.503288 4.679168 2.970899 0.454280 0.069090 0.578210 18.673747 -9.663631 4.016116 14.406905 7.507231 -33.734663 1.520051 -3.798898 20.799218 -0.086075 -1.783456 3.790053 0.089060 -0.082640 -0.018800 -4.812741 -2.037567 -7.787962 26.261227 -13.772369 27.248141 -13.024427 -7.049701 3.203842 3.134929 -10.483147 -9.707994 -33.151338 19.902939 47.258027 -11.496760 10.301910 -14.405410 -23.627247 -1.408356 1.076130 -32.593955 7.962532 -13.317185 -22.601670 -59.412369 6.892083 -3.337465 2.926925 0.898760 -0.167580 0.156090 0.036870 16.952034 4.311985 4.807125 46.929074 -6.680523 -11.093439 6.407299 8.580752 -0.542995 2.344375 -0.797660 -0.363070 0.361340 -0.023740 -0.414680 
3.236040 17.548580 -1.567260 -0.658949 19.812874 0.852436 -14.984874 12.821179 2.875063 -5.809712 0.837429 0.874227 -5.497247 6.134265 14.812411 -0.484310 4.664112 2.982743 0.439560 0.044240 0.587580 18.725283 -9.650559 3.850897 14.516897 6.624987 -29.974346 5.225458 -3.505063 11.750750 -0.013705 -1.292822 3.981323 0.077850 -0.090130 -0.029640 -4.835857 -2.022646 -7.705979 27.193885 -13.453325 23.521340 -13.444202 -7.321195 4.977850 3.361637 -10.474660 -10.696335 -34.319238 21.182554 47.247978 -12.088320 11.351230 -13.456730 -22.301094 -2.528039 2.077982 -32.821496 8.498403 -12.943567 -18.809892 -53.494931 4.171044 -3.328980 2.859690 0.903680 -0.171510 0.154160 0.024710 15.356571 5.296942 5.609510 46.199048 -7.167251 -11.800111 9.761378 11.928727 -0.463228 2.307018 -0.818875 -0.374770 0.357400 -0.020210 -0.425110 
3.286890 17.534480 -1.444580 -0.651884 17.373401 1.534183 -14.983839 12.746948 2.895392 -5.490807 1.054917 1.974747 -7.086451 6.442095 13.170050 -0.434357 4.757091 2.952527 0.437050 0.043700 0.599230 18.762105 -9.568119 3.791815 15.258604 6.093244 -27.011752 6.328809 -3.069475 6.318335 -0.034062 -1.198336 4.037650 0.065750 -0.105150 -0.039790 -4.811643 -2.099649 -7.689168 26.930949 -12.886284 20.794359 -13.497446 -7.359125 6.602479 3.592781 -10.261540 -11.787960 -34.660012 22.103309 47.966130 -12.459220 12.343160 -13.636920 -20.950969 -3.907476 3.235760 -32.204802 9.732743 -12.515578 -17.332131 -48.808840 3.006128 -3.304546 2.798494 0.925240 -0.186540 0.174850 0.021700 13.754067 6.692994 6.417821 45.717538 -7.294045 -11.982085 13.187414 12.577451 -0.342752 2.298281 -0.811787 -0.376260 0.366140 -0.025340 -0.430970 
3.350700 17.505790 -1.327980 -0.604546 15.186011 2.439834 -14.988369 12.713998 2.929488 -5.549242 1.132808 2.387340 -8.391252 6.743049 12.465713 -0.389729 4.914459 2.923206 0.344000 -0.071850 0.551500 18.781786 -9.488912 3.761135 15.859140 5.887835 -25.795459 6.005871 -2.953403 5.108350 -0.004176 -1.232603 4.057022 0.002340 -0.042460 -0.042120 -4.777915 -2.228304 -7.665214 26.665297 -12.456315 18.148198 -13.652365 -7.488191 7.645586 3.885005 -10.033675 -12.623556 -33.666017 22.158153 48.012961 -12.885160 13.628240 -11.329750 -20.199769 -5.095215 4.214394 -30.803970 11.236891 -11.671659 -17.480205 -44.417389 2.708671 -3.357485 2.748171 0.911560 -0.138450 0.130900 0.004070 12.517615 7.913923 7.214785 44.573504 -7.833299 -12.459096 17.903427 15.052627 0.004137 2.259437 -0.830623 -0.413940 0.374740 0.023270 -0.434530 
3.413700 17.471590 -1.222710 -0.628714 13.699467 2.881501 -15.004543 12.758007 2.983240 -5.543962 1.179092 3.031477 -9.023725 6.964144 12.280193 -0.329650 5.053155 2.882576 0.273330 -0.173980 0.538660 18.769967 -9.434745 3.736268 16.225897 5.777071 -25.228389 5.040374 -3.007403 6.240183 0.017259 -1.282838 4.039425 -0.064770 -0.035320 -0.022390 -4.712330 -2.430038 -7.670846 26.108829 -12.157898 16.332337 -13.532379 -7.666534 8.504799 4.328818 -9.524999 -13.186917 -31.090195 21.134984 48.654381 -14.435880 15.124040 -9.507420 -20.276602 -6.387352 4.933748 -28.576434 12.463227 -10.800223 -19.013872 -41.404721 3.042121 -3.378259 2.772008 0.900040 -0.109470 0.110580 -0.024310 11.725447 9.095430 7.994519 43.077862 -8.644359 -13.118993 22.537308 18.737914 0.702229 2.229113 -0.904995 -0.421860 0.324620 0.048700 -0.451640 
3.478150 17.437000 -1.116740 -0.657953 12.493569 3.609921 -15.017264 12.791078 3.008113 -5.739745 1.210947 3.090954 -9.351491 7.122095 12.452173 -0.288437 5.163460 2.873062 0.172010 -0.294350 0.465320 18.762164 -9.385617 3.724771 16.292416 5.859704 -25.479740 4.534742 -3.096488 7.614661 0.071636 -1.345305 4.047475 -0.130420 0.042100 -0.012180 -4.665725 -2.586795 -7.655659 25.734900 -11.712068 14.324832 -13.108391 -7.741057 9.141962 4.468864 -9.029821 -13.472603 -28.439746 19.886041 48.441155 -14.393940 15.962410 -6.392050 -19.634469 -6.861502 5.404245 -27.469598 13.186293 -9.962555 -20.802729 -38.495612 3.345358 -3.451046 2.770316 0.859740 -0.039950 0.048730 -0.031750 10.762137 9.424771 8.473753 41.766704 -9.905685 -13.909571 27.452021 22.898057 1.795852 2.173792 -0.991569 -0.450740 0.308510 0.095600 -0.444950 
3.544750 17.426970 -1.001390 -0.959352 11.254149 3.526847 -15.010804 12.777528 3.014974 -5.510047 1.261320 3.895814 -9.726213 7.309711 12.481251 -0.239108 5.306579 2.831200 0.134530 -0.329520 0.424340 18.774568 -9.395163 3.672279 15.907208 5.750327 -24.983221 5.219789 -3.343708 8.523769 0.077232 -1.487244 4.006331 -0.153270 0.085380 0.014200 -4.674339 -2.577344 -7.599401 26.119960 -11.785936 13.126298 -13.157067 -8.138066 9.733301 4.388936 -8.923157 -13.342888 -27.238006 19.377458 47.586541 -14.206150 16.161650 -5.345560 -19.499348 -6.959346 5.536014 -26.143499 13.340564 -9.060456 -21.813502 -35.571931 3.303263 -3.508895 2.792635 0.818270 0.006100 0.017540 -0.036840 10.741889 9.318430 8.500162 39.807243 -10.446195 -14.116280 32.073869 26.912137 3.275586 2.127925 -1.093501 -0.440770 0.287990 0.123150 -0.429860 
3.607460 17.437540 -0.871500 -1.335236 9.716950 3.024180 -15.013073 12.790718 3.018020 -4.958899 1.189470 4.909738 -10.194903 7.629819 13.155607 -0.204470 5.516670 2.743488 0.153530 -0.310950 0.428760 18.776286 -9.394126 3.632573 15.952093 5.442299 -23.313172 5.696994 -3.462033 8.236661 0.031857 -1.608571 3.947045 -0.143070 0.069740 0.041240 -4.650439 -2.630170 -7.571473 26.425271 -11.931266 12.709299 -13.032873 -8.492948 10.052079 4.378117 -8.885430 -13.336227 -26.932776 19.369337 47.412811 -14.055770 15.990840 -6.297820 -19.421341 -7.176089 5.656895 -25.369705 12.858340 -8.092338 -22.550753 -31.685821 2.893794 -3.515924 2.797383 0.831950 -0.001100 0.035080 -0.039480 10.703451 9.411611 8.483038 37.917120 -10.313316 -13.916884 35.553086 29.960044 4.745730 2.098131 -1.166683 -0.425290 0.268620 0.126790 -0.432230 
3.681040 17.444710 -0.731950 -1.364754 7.928818 2.836931 -15.004664 12.751223 3.049836 -5.016224 1.270320 5.766262 -10.833611 7.915239 13.379904 -0.160006 5.659542 2.706791 0.176020 -0.273320 0.439010 18.792118 -9.415416 3.588966 16.013126 5.191266 -22.242543 5.612012 -3.565119 8.755978 0.000247 -1.697902 3.931087 -0.122200 0.074920 0.027580 -4.662884 -2.570605 -7.537375 26.745919 -11.891774 12.214435 -13.249012 -8.602380 10.282103 4.292821 -8.956553 -13.194997 -26.520460 19.215182 46.392767 -13.503940 15.757300 -7.555930 -19.116891 -7.137922 5.667607 -24.711736 12.426984 -7.306904 -24.439442 -28.262580 2.712507 -3.517464 2.771299 0.833470 -0.006110 0.042530 -0.022400 10.544168 9.364926 8.383092 36.752784 -9.986176 -13.672897 38.800400 32.082452 6.062276 2.083305 -1.210313 -0.427990 0.297130 0.107040 -0.425890 
3.754650 17.464360 -0.589510 -0.996629 5.409956 2.542233 -15.012382 12.778745 3.130689 -5.441593 1.315834 6.332562 -11.563734 8.314370 14.323925 -0.121975 5.825358 2.632750 0.219850 -0.227020 0.471460 18.776997 -9.435917 3.537563 15.819511 4.764655 -20.842689 5.310575 -3.651982 9.276982 -0.058819 -1.765013 3.894967 -0.102420 0.019110 0.016260 -4.606392 -2.650820 -7.554160 26.391392 -11.606893 12.532734 -13.085078 -8.344556 10.111916 4.412208 -9.102813 -13.448465 -27.188174 18.990404 46.177082 -13.441980 14.834900 -10.044330 -18.827966 -7.130790 5.694697 -25.083992 12.163788 -6.998936 -25.892982 -25.387498 2.324050 -3.462946 2.740945 0.885520 -0.066330 0.088860 -0.019270 10.068519 9.665228 8.662529 36.502507 -10.509682 -14.106711 41.957066 34.973537 7.667835 2.075261 -1.240549 -0.420770 0.307260 0.083820 -0.434450 
3.807110 17.481820 -0.460390 -0.625215 2.863788 2.772884 -15.020193 12.826320 3.165095 -5.349670 1.085011 5.584840 -13.102426 9.126805 16.379409 -0.077260 6.130684 2.520879 0.208280 -0.249210 0.458570 18.756195 -9.441445 3.534117 15.779155 4.704193 -20.410976 4.749906 -3.689698 10.351507 -0.050740 -1.831861 3.882441 -0.106170 0.017850 0.001320 -4.544744 -2.744411 -7.585107 25.704517 -10.973828 12.572135 -12.401429 -7.805759 9.628345 4.373907 -9.208761 -13.484398 -26.927920 18.101103 45.038598 -13.239350 14.185430 -10.137020 -18.670644 -7.089475 5.652209 -25.261521 11.878277 -6.568060 -28.188411 -22.258834 1.943606 -3.472991 2.735215 0.891150 -0.068700 0.066350 -0.027460 9.988251 10.054049 8.815395 36.217145 -10.514277 -14.055784 43.888107 36.410110 8.661442 2.066949 -1.267098 -0.436990 0.302760 0.094080 -0.445860 
3.845490 17.483560 -0.348320 0.272018 0.558221 3.400919 -15.044801 12.883527 3.209934 -5.577888 0.702673 3.930338 -14.627678 10.130662 19.261040 -0.034642 6.527641 2.376614 0.180470 -0.303560 0.448000 18.717352 -9.437990 3.521326 15.471317 4.744135 -20.697954 3.827560 -3.626737 11.673514 -0.023763 -1.857848 3.861757 -0.116650 0.038060 -0.000290 -4.439098 -2.884445 -7.624344 23.726888 -9.981289 12.451757 -11.118456 -7.077895 9.438259 4.061518 -9.183161 -13.427956 -26.023026 17.268695 43.464196 -12.153710 13.699690 -10.036860 -17.986641 -6.947476 5.574217 -25.606490 11.317024 -6.254384 -31.228248 -19.679062 1.604580 -3.510802 2.743456 0.899580 -0.060680 0.033310 -0.046480 9.951521 10.297728 8.898226 36.047547 -10.575246 -14.074927 45.981232 38.021126 9.798287 2.057997 -1.296739 -0.468320 0.297420 0.121640 -0.462940 
3.878210 17.493680 -0.237660 1.031057 -0.015011 3.446785 -15.097127 13.014177 3.252106 -4.414877 -0.181048 2.244153 -16.533694 11.631510 23.114628 0.071652 7.196080 2.136689 0.154650 -0.348580 0.446130 18.640518 -9.413501 3.466663 14.644376 4.516922 -20.307543 3.616158 -3.643393 12.086186 -0.014557 -1.888766 3.854124 -0.133470 0.045450 -0.001340 -4.246545 -3.204886 -7.699739 21.581517 -9.605921 12.614604 -9.506465 -7.001078 9.302878 3.945654 -8.753624 -13.399438 -24.516834 16.294952 43.297169 -11.796380 13.337760 -10.317360 -17.398491 -7.075114 5.552823 -26.782832 10.394965 -6.162461 -33.153567 -17.650812 1.171972 -3.542924 2.720768 0.914430 -0.056360 0.019630 -0.065310 9.654902 10.402408 8.950812 36.046093 -10.521310 -14.146216 47.737220 39.274985 10.768082 2.047800 -1.299558 -0.489890 0.299550 0.144440 -0.480360 
3.904490 17.497200 -0.135440 2.543352 -1.602074 3.604625 -15.170273 13.115559 3.396900 -4.142145 -1.064548 0.054386 -18.494662 13.365524 27.208745 0.222854 7.958227 1.849432 0.105990 -0.409640 0.413850 18.536190 -9.413203 3.362827 13.128964 4.233206 -20.295434 3.411161 -3.733131 13.104283 0.004592 -1.943712 3.827590 -0.169460 0.062110 0.022190 -3.976537 -3.499199 -7.816410 18.234028 -8.673607 12.994241 -7.980353 -6.365588 9.028932 3.868869 -8.269420 -13.506495 -23.004183 15.657827 43.004993 -11.114240 13.172620 -10.408650 -16.395017 -7.021043 5.581001 -28.290896 9.844313 -6.308452 -34.817986 -16.502987 0.878242 -3.590593 2.720516 0.919320 -0.041610 0.005540 -0.098590 8.924340 10.533444 9.064617 36.752769 -10.254999 -14.248883 50.421620 40.222912 11.922631 2.045525 -1.303181 -0.492830 0.278270 0.193300 -0.485540 
